<svg width="18" height="18" viewBox="0 0 18 18" fill="none" xmlns="http://www.w3.org/2000/svg">
<path d="M12.8071 1H4.93571C2.76208 1 1 2.76208 1 4.93571V12.8071C1 14.9808 2.76208 16.7428 4.93571 16.7428H12.8071C14.9808 16.7428 16.7428 14.9808 16.7428 12.8071V4.93571C16.7428 2.76208 14.9808 1 12.8071 1Z" stroke="white" stroke-width="1.5" stroke-linecap="round" stroke-linejoin="round"/>
<path d="M12.017 8.37813C12.1141 9.03323 12.0022 9.70228 11.6972 10.2901C11.3922 10.8779 10.9096 11.3546 10.318 11.6524C9.72649 11.9501 9.05611 12.0538 8.40226 11.9486C7.74842 11.8433 7.14439 11.5346 6.6761 11.0663C6.20782 10.5981 5.89911 9.99404 5.7939 9.34019C5.68868 8.68634 5.79232 8.01596 6.09007 7.42441C6.38781 6.83286 6.8645 6.35025 7.45234 6.04524C8.04018 5.74022 8.70922 5.62832 9.36432 5.72547C10.0325 5.82456 10.6512 6.13593 11.1288 6.6136C11.6065 7.09127 11.9179 7.70991 12.017 8.37813Z" stroke="white" stroke-width="1.5" stroke-linecap="round" stroke-linejoin="round"/>
<path d="M13.1992 4.54297H13.2093" stroke="white" stroke-width="1.5" stroke-linecap="round" stroke-linejoin="round"/>
</svg>
