<svg width="20" height="19" viewBox="0 0 20 19" fill="none" xmlns="http://www.w3.org/2000/svg">
<path d="M13.4696 6.34375C14.8871 6.34375 16.2465 6.90684 17.2488 7.90914C18.2511 8.91145 18.8142 10.2709 18.8142 11.6883V17.9237H15.2511V11.6883C15.2511 11.2158 15.0634 10.7627 14.7293 10.4286C14.3952 10.0945 13.9421 9.90681 13.4696 9.90681C12.9971 9.90681 12.544 10.0945 12.2099 10.4286C11.8758 10.7627 11.6881 11.2158 11.6881 11.6883V17.9237H8.125V11.6883C8.125 10.2709 8.68809 8.91145 9.69039 7.90914C10.6927 6.90684 12.0521 6.34375 13.4696 6.34375Z" stroke="white" stroke-width="1.5" stroke-linecap="round" stroke-linejoin="round"/>
<path d="M4.56306 7.23438H1V17.9235H4.56306V7.23438Z" stroke="white" stroke-width="1.5" stroke-linecap="round" stroke-linejoin="round"/>
<path d="M2.78153 4.56306C3.76544 4.56306 4.56306 3.76544 4.56306 2.78153C4.56306 1.79762 3.76544 1 2.78153 1C1.79762 1 1 1.79762 1 2.78153C1 3.76544 1.79762 4.56306 2.78153 4.56306Z" stroke="white" stroke-width="1.5" stroke-linecap="round" stroke-linejoin="round"/>
</svg>
