<svg width="48" height="48" viewBox="0 0 48 48" fill="none" xmlns="http://www.w3.org/2000/svg">
<path d="M14.0137 23.9997C14.0137 23.6018 14.1717 23.2203 14.453 22.939C14.7343 22.6577 15.1158 22.4997 15.5137 22.4997H22.4997V15.5137C22.4997 15.1158 22.6577 14.7343 22.939 14.453C23.2203 14.1717 23.6018 14.0137 23.9997 14.0137C24.3975 14.0137 24.779 14.1717 25.0603 14.453C25.3416 14.7343 25.4997 15.1158 25.4997 15.5137V22.4997H32.4857C32.8835 22.4997 33.265 22.6577 33.5463 22.939C33.8276 23.2203 33.9857 23.6018 33.9857 23.9997C33.9857 24.3975 33.8276 24.779 33.5463 25.0603C33.265 25.3416 32.8835 25.4997 32.4857 25.4997H25.4997V32.4857C25.4997 32.8835 25.3416 33.265 25.0603 33.5463C24.779 33.8276 24.3975 33.9857 23.9997 33.9857C23.6018 33.9857 23.2203 33.8276 22.939 33.5463C22.6577 33.265 22.4997 32.8835 22.4997 32.4857V25.4997H15.5137C15.1158 25.4997 14.7343 25.3416 14.453 25.0603C14.1717 24.779 14.0137 24.3975 14.0137 23.9997Z" fill="#475467"/>
<path fill-rule="evenodd" clip-rule="evenodd" d="M14.6337 7.53807C20.8586 6.84799 27.1408 6.84799 33.3657 7.53807C37.0197 7.94607 39.9697 10.8241 40.3977 14.4981C41.1377 20.8121 41.1377 27.1901 40.3977 33.5041C39.9677 37.1781 37.0177 40.0541 33.3657 40.4641C27.1408 41.1542 20.8586 41.1542 14.6337 40.4641C10.9797 40.0541 8.02968 37.1781 7.60168 33.5041C6.86324 27.1903 6.86324 20.8119 7.60168 14.4981C8.02968 10.8241 10.9817 7.94607 14.6337 7.53807ZM33.0337 10.5181C27.0294 9.85254 20.97 9.85254 14.9657 10.5181C13.8542 10.6414 12.8167 11.1358 12.0208 11.9215C11.225 12.7072 10.7173 13.7382 10.5797 14.8481C9.86838 20.93 9.86838 27.0741 10.5797 33.1561C10.7177 34.2655 11.2256 35.2961 12.0214 36.0814C12.8172 36.8667 13.8545 37.3609 14.9657 37.4841C20.9197 38.1481 27.0797 38.1481 33.0337 37.4841C34.1445 37.3604 35.1813 36.8661 35.9767 36.0808C36.7722 35.2956 37.2798 34.2652 37.4177 33.1561C38.129 27.0741 38.129 20.93 37.4177 14.8481C37.2794 13.7393 36.7716 12.7094 35.9762 11.9245C35.1808 11.1397 34.1442 10.6456 33.0337 10.5221" fill="#475467"/>
</svg>
