<svg width="165" height="48" viewBox="0 0 165 48" fill="none" xmlns="http://www.w3.org/2000/svg">
<rect x="0.896484" width="163.604" height="47.1652" rx="22.1087" fill="#121F3E"/>
<path d="M36.864 24.8857C36.8792 23.711 37.1912 22.5593 37.771 21.5377C38.3509 20.5159 39.1798 19.6575 40.1806 19.0423C39.5448 18.1343 38.7061 17.3871 37.7311 16.86C36.756 16.3328 35.6714 16.0404 34.5636 16.0057C32.2003 15.7576 29.9092 17.4199 28.7049 17.4199C27.4773 17.4199 25.6232 16.0303 23.6265 16.0714C22.335 16.1131 21.0763 16.4887 19.9732 17.1615C18.87 17.8343 17.9599 18.7814 17.3316 19.9105C14.6097 24.6229 16.64 31.5485 19.2472 35.3577C20.5517 37.2228 22.0762 39.3064 24.0711 39.2325C26.0232 39.1516 26.7522 37.9878 29.1086 37.9878C31.443 37.9878 32.127 39.2325 34.1624 39.1856C36.257 39.1515 37.5768 37.312 38.8355 35.4291C39.7727 34.1001 40.494 32.6312 40.9724 31.0769C39.7555 30.5622 38.717 29.7006 37.9863 28.5997C37.2558 27.4987 36.8655 26.207 36.864 24.8857Z" fill="#FDFDFF"/>
<path d="M33.0202 13.4984C34.1623 12.1274 34.725 10.3652 34.5887 8.58594C32.8438 8.76919 31.232 9.60312 30.0745 10.9216C29.5086 11.5657 29.0751 12.315 28.7989 13.1267C28.5228 13.9385 28.4093 14.7966 28.4649 15.6522C29.3377 15.6612 30.2011 15.4721 30.9901 15.099C31.7792 14.7259 32.4733 14.1787 33.0202 13.4984Z" fill="#FDFDFF"/>
<path d="M48.6387 16.9178H50.5513C52.3711 16.9178 53.7916 15.7386 53.7916 13.6682C53.7916 11.5977 52.3711 10.4185 50.5513 10.4185H48.6387V16.9178ZM49.4279 16.2029V11.1335H50.5327C51.7954 11.1335 52.9653 11.8762 52.9653 13.6682C52.9653 15.4601 51.7954 16.2029 50.5327 16.2029H49.4279ZM56.9011 16.992C58.2937 16.992 59.2872 15.98 59.2872 14.578C59.2872 13.1668 58.2937 12.164 56.9011 12.164C55.5176 12.164 54.5242 13.1668 54.5242 14.578C54.5242 15.98 55.5176 16.992 56.9011 16.992ZM56.9011 16.3236C55.9447 16.3236 55.2855 15.5994 55.2855 14.578C55.2855 13.5567 55.9447 12.8325 56.9011 12.8325C57.8667 12.8325 58.5259 13.5567 58.5259 14.578C58.5259 15.5994 57.8667 16.3236 56.9011 16.3236ZM61.0996 16.9178H61.8145L62.9565 13.1946L64.1078 16.9178H64.8227L66.2432 12.2383H65.4912L64.4606 15.9522L63.3279 12.2383H62.6037L61.4524 15.9522L60.4218 12.2383H59.679L61.0996 16.9178ZM67.025 16.9178H67.7678V14.3924C67.7678 13.4825 68.3434 12.8418 69.1419 12.8418C69.8475 12.8418 70.3118 13.3803 70.3118 14.1788V16.9178H71.0545V14.0581C71.0545 12.9161 70.3675 12.164 69.309 12.164C68.5941 12.164 68.0092 12.489 67.7678 13.1389V12.2383H67.025V16.9178ZM72.3209 16.9178H73.0637V10.3164H72.3209V16.9178ZM76.4313 16.992C77.8239 16.992 78.8174 15.98 78.8174 14.578C78.8174 13.1668 77.8239 12.164 76.4313 12.164C75.0478 12.164 74.0544 13.1668 74.0544 14.578C74.0544 15.98 75.0478 16.992 76.4313 16.992ZM76.4313 16.3236C75.4749 16.3236 74.8157 15.5994 74.8157 14.578C74.8157 13.5567 75.4749 12.8325 76.4313 12.8325C77.3969 12.8325 78.0561 13.5567 78.0561 14.578C78.0561 15.5994 77.3969 16.3236 76.4313 16.3236ZM81.5382 12.164C80.4891 12.164 79.6349 12.8325 79.5513 13.7331H80.257C80.2941 13.2225 80.8326 12.7954 81.5197 12.7954C82.3182 12.7954 82.7731 13.2318 82.7731 13.8724C82.7731 14.021 82.6803 14.1231 82.476 14.1231H81.4176C80.2848 14.1231 79.5513 14.6895 79.5513 15.5808C79.5513 16.435 80.192 16.992 81.1762 16.992C81.9004 16.992 82.5224 16.6485 82.7731 16.11V16.9178H83.5159V13.9003C83.5159 12.8604 82.7545 12.164 81.5382 12.164ZM81.2876 16.3607C80.6934 16.3607 80.3127 16.0543 80.3127 15.5715C80.3127 15.0237 80.7676 14.6895 81.464 14.6895H82.7731V14.8102C82.7731 15.7758 82.2253 16.3607 81.2876 16.3607ZM86.6016 16.992C87.2608 16.992 87.8736 16.6578 88.1521 16.1471V16.9178H88.8949V10.3164H88.1521V12.9997C87.8736 12.4983 87.2608 12.164 86.6016 12.164C85.1439 12.164 84.3455 13.2132 84.3455 14.578C84.3455 15.9429 85.1439 16.992 86.6016 16.992ZM86.6666 16.3236C85.7289 16.3236 85.1068 15.6365 85.1068 14.578C85.1068 13.5196 85.7289 12.8325 86.6666 12.8325C87.6044 12.8325 88.2171 13.5196 88.2171 14.578C88.2171 15.6365 87.6044 16.3236 86.6666 16.3236ZM94.4745 16.992C95.8672 16.992 96.8607 15.98 96.8607 14.578C96.8607 13.1668 95.8672 12.164 94.4745 12.164C93.0911 12.164 92.0976 13.1668 92.0976 14.578C92.0976 15.98 93.0911 16.992 94.4745 16.992ZM94.4745 16.3236C93.5182 16.3236 92.859 15.5994 92.859 14.578C92.859 13.5567 93.5182 12.8325 94.4745 12.8325C95.4401 12.8325 96.0993 13.5567 96.0993 14.578C96.0993 15.5994 95.4401 16.3236 94.4745 16.3236ZM97.8165 16.9178H98.5593V14.3924C98.5593 13.4825 99.1349 12.8418 99.9334 12.8418C100.639 12.8418 101.103 13.3803 101.103 14.1788V16.9178H101.846V14.0581C101.846 12.9161 101.159 12.164 100.101 12.164C99.3856 12.164 98.8007 12.489 98.5593 13.1389V12.2383H97.8165V16.9178ZM105.798 10.7435V12.2383H104.824V12.8975H105.798V15.4508C105.798 16.3607 106.374 16.9178 107.265 16.9178H107.98V16.2586H107.293C106.838 16.2586 106.541 15.9522 106.541 15.4322V12.8975H107.98V12.2383H106.541V10.7435H105.798ZM108.888 16.9178H109.631V14.3924C109.631 13.4825 110.206 12.8418 111.005 12.8418C111.71 12.8418 112.175 13.3803 112.175 14.1788V16.9178H112.917V14.0581C112.917 12.9161 112.23 12.164 111.172 12.164C110.457 12.164 109.872 12.489 109.631 13.1389V10.3164H108.888V16.9178ZM117.582 15.4137C117.433 15.9986 116.95 16.3328 116.189 16.3328C115.307 16.3328 114.666 15.6458 114.611 14.6802H118.269C118.278 14.6152 118.287 14.4573 118.287 14.3552C118.287 13.1111 117.47 12.164 116.105 12.164C114.731 12.164 113.877 13.1761 113.877 14.5502C113.877 15.8872 114.806 16.992 116.189 16.992C117.349 16.992 118.176 16.37 118.334 15.4137H117.582ZM116.105 12.7954C116.941 12.7954 117.47 13.2968 117.526 14.086H114.648C114.787 13.2596 115.316 12.7954 116.105 12.7954Z" fill="white"/>
<path d="M57.8299 33.1665H60.3739L55.3602 20.1681H53.0576L48.0625 33.1665H50.5879L51.7021 30.1398H56.7158L57.8299 33.1665ZM52.482 28.06L54.2275 23.3063L55.973 28.06H52.482ZM61.6329 36.9547H63.8983V32.1452C64.4183 32.8694 65.421 33.3151 66.5537 33.3151C69.302 33.3151 71.0661 31.3468 71.0661 28.4871C71.0661 25.6274 69.4134 23.6591 66.7209 23.6591C65.4767 23.6591 64.4554 24.179 63.8983 24.9775V23.8077H61.6329V36.9547ZM66.2938 31.3468C64.7525 31.3468 63.7498 30.214 63.7498 28.4871C63.7498 26.7602 64.7525 25.6274 66.2938 25.6274C67.7979 25.6274 68.8006 26.7602 68.8006 28.4871C68.8006 30.214 67.7979 31.3468 66.2938 31.3468ZM72.7308 36.9547H74.9962V32.1452C75.5162 32.8694 76.5189 33.3151 77.6516 33.3151C80.3999 33.3151 82.164 31.3468 82.164 28.4871C82.164 25.6274 80.5113 23.6591 77.8188 23.6591C76.5746 23.6591 75.5533 24.179 74.9962 24.9775V23.8077H72.7308V36.9547ZM77.3917 31.3468C75.8504 31.3468 74.8477 30.214 74.8477 28.4871C74.8477 26.7602 75.8504 25.6274 77.3917 25.6274C78.8958 25.6274 79.8985 26.7602 79.8985 28.4871C79.8985 30.214 78.8958 31.3468 77.3917 31.3468ZM92.2549 33.3151C95.1146 33.3151 97.1015 31.8481 97.1015 29.4341C97.1015 24.3647 90.0266 26.5188 90.0266 23.6405C90.0266 22.7306 90.8251 22.1364 92.1064 22.1364C93.4805 22.1364 94.3718 22.8978 94.4833 24.0305H96.823C96.7116 21.5979 94.8546 20.0195 92.1064 20.0195C89.4696 20.0195 87.6312 21.5051 87.6312 23.6405C87.6312 28.6171 94.6132 26.6859 94.6132 29.4713C94.6132 30.6226 93.6476 31.1796 92.2549 31.1796C90.6951 31.1796 89.7295 30.2512 89.5995 28.8028H87.2413C87.3712 31.5325 89.3024 33.3151 92.2549 33.3151ZM99.7383 20.9851V23.8077H97.9V25.7203H99.7383V29.8984C99.7383 31.9781 101.075 33.1665 103.118 33.1665H104.622V31.2353H103.378C102.524 31.2353 102.022 30.7525 102.022 29.8055V25.7203H104.622V23.8077H102.022V20.9851H99.7383ZM110.296 33.3151C113.137 33.3151 115.18 31.2725 115.18 28.4871C115.18 25.7017 113.137 23.6591 110.296 23.6591C107.436 23.6591 105.394 25.7017 105.394 28.4871C105.394 31.2725 107.436 33.3151 110.296 33.3151ZM110.296 31.3468C108.736 31.3468 107.696 30.1769 107.696 28.4871C107.696 26.7973 108.736 25.6274 110.296 25.6274C111.837 25.6274 112.877 26.7973 112.877 28.4871C112.877 30.1769 111.837 31.3468 110.296 31.3468ZM122.496 25.7203V23.8077H121.401C120.194 23.8077 119.47 24.2719 119.005 25.4603V23.8077H116.721V33.1665H119.005V28.7471C119.005 26.9644 119.581 25.7203 121.029 25.7203H122.496ZM129.911 30.0469C129.669 30.9382 128.908 31.421 127.738 31.421C126.29 31.421 125.324 30.4554 125.157 28.9513H132.065C132.083 28.7656 132.102 28.4871 132.102 28.1714C132.102 25.9431 130.69 23.6591 127.552 23.6591C124.488 23.6591 122.966 25.9803 122.966 28.45C122.966 30.9011 124.674 33.3151 127.738 33.3151C130.041 33.3151 131.786 32.0338 132.139 30.0469H129.911ZM127.552 25.3675C128.908 25.3675 129.725 26.2588 129.818 27.4472H125.213C125.454 26.036 126.271 25.3675 127.552 25.3675Z" fill="white"/>
</svg>
