<svg  viewBox="0 0 17 38" fill="currentColor" xmlns="http://www.w3.org/2000/svg">
<path d="M2.78874 27.7075L0 30.2693L8.36229 37.9567L16.7246 30.2693L13.9358 27.7075L8.36229 32.833L2.78874 27.7075ZM13.9358 10.2492L16.7246 7.68737L8.36229 0L0 7.68737L2.78874 10.2492L8.36229 5.12551L13.9358 10.2492Z" fill="currentColor"/>
<path fill-rule="evenodd" clip-rule="evenodd" d="M8.36566 13.543C9.93376 13.543 11.4376 14.1156 12.5465 15.1349C13.6553 16.1543 14.2782 17.5368 14.2782 18.9783C14.2782 20.4198 13.6553 21.8023 12.5465 22.8217C11.4376 23.841 9.93376 24.4136 8.36566 24.4136C6.79756 24.4136 5.29368 23.841 4.18487 22.8217C3.07605 21.8023 2.45312 20.4198 2.45312 18.9783C2.45312 17.5368 3.07605 16.1543 4.18487 15.1349C5.29368 14.1156 6.79756 13.543 8.36566 13.543ZM8.36566 17.1665C8.88836 17.1665 9.38965 17.3574 9.75926 17.6972C10.1289 18.037 10.3365 18.4978 10.3365 18.9783C10.3365 19.4588 10.1289 19.9196 9.75926 20.2594C9.38965 20.5992 8.88836 20.7901 8.36566 20.7901C7.84296 20.7901 7.34167 20.5992 6.97206 20.2594C6.60246 19.9196 6.39481 19.4588 6.39481 18.9783C6.39481 18.4978 6.60246 18.037 6.97206 17.6972C7.34167 17.3574 7.84296 17.1665 8.36566 17.1665Z" fill="currentColor"/>
</svg>
