<svg width="16" height="16" viewBox="0 0 16 16" fill="none" xmlns="http://www.w3.org/2000/svg">
<path fill-rule="evenodd" clip-rule="evenodd" d="M5.04 14.8124C5.42402 14.9957 5.84415 15.091 6.26971 15.0912H12.3794C13.0607 15.0912 13.7196 14.8477 14.2372 14.4047C14.7548 13.9617 15.0971 13.3483 15.2023 12.6752L15.9177 8.10035C15.9689 7.7742 15.9488 7.44083 15.8588 7.12319C15.7689 6.80554 15.6112 6.51115 15.3966 6.26028C15.1819 6.0094 14.9155 5.80799 14.6157 5.6699C14.3158 5.53181 13.9896 5.46032 13.6594 5.46035H9.90857V2.76778C9.90911 2.35643 9.77306 1.95654 9.52178 1.63086C9.27049 1.30519 8.91819 1.07215 8.52016 0.968331C8.12213 0.864508 7.70089 0.895771 7.32255 1.05722C6.9442 1.21866 6.63016 1.50115 6.42971 1.86035L4.056 6.10035C3.91277 6.35632 3.83761 6.64475 3.83771 6.93807V13.1575C3.83766 13.4813 3.9293 13.7984 4.10203 14.0723C4.27475 14.3461 4.5215 14.5655 4.81371 14.7049L5.04228 14.8135L5.04 14.8124ZM1.19314 6.30949C1.04356 6.30934 0.895421 6.33868 0.757186 6.39581C0.61895 6.45295 0.493332 6.53677 0.387511 6.64249C0.28169 6.7482 0.197743 6.87374 0.140467 7.01191C0.0831913 7.15009 0.0537109 7.2982 0.0537109 7.44778V13.2901C0.0537109 13.5923 0.173758 13.8821 0.387442 14.0958C0.601126 14.3094 0.890944 14.4295 1.19314 14.4295H1.76C1.91155 14.4295 2.05689 14.3693 2.16406 14.2621C2.27122 14.155 2.33143 14.0096 2.33143 13.8581V6.87978C2.33143 6.72823 2.27122 6.58288 2.16406 6.47572C2.05689 6.36856 1.91155 6.30835 1.76 6.30835L1.19314 6.30949Z" fill="#05834B"/>
</svg>
