<svg width="44" height="45" viewBox="0 0 44 45" fill="none" xmlns="http://www.w3.org/2000/svg">
<path fill-rule="evenodd" clip-rule="evenodd" d="M7.16497 4.23926C5.21421 4.23926 3.63281 5.82114 3.63281 7.77248V30.3851C3.63281 32.3365 5.21421 33.9183 7.16497 33.9183H31.1836L37.1846 40.3829C38.3204 41.6065 40.3672 40.8025 40.3672 39.1327V33.9183V7.77248C40.3672 5.82114 38.7858 4.23926 36.8351 4.23926H7.16497ZM10.6971 14.8389C10.6971 13.6681 11.646 12.719 12.8164 12.719H31.1836C32.354 12.719 33.3029 13.6681 33.3029 14.8389C33.3029 16.0097 32.354 16.9589 31.1836 16.9589H12.8164C11.646 16.9589 10.6971 16.0097 10.6971 14.8389ZM10.6971 23.3187C10.6971 22.1479 11.646 21.1987 12.8164 21.1987H25.5322C26.7026 21.1987 27.6515 22.1479 27.6515 23.3187C27.6515 24.4894 26.7026 25.4386 25.5322 25.4386H12.8164C11.646 25.4386 10.6971 24.4894 10.6971 23.3187Z" fill="white"/>
</svg>
