<svg width="18" height="18" viewBox="0 0 18 18" fill="none" xmlns="http://www.w3.org/2000/svg">
<path d="M15.3996 6.60156H8.19961C7.31595 6.60156 6.59961 7.31791 6.59961 8.20156V15.4016C6.59961 16.2852 7.31595 17.0016 8.19961 17.0016H15.3996C16.2833 17.0016 16.9996 16.2852 16.9996 15.4016V8.20156C16.9996 7.31791 16.2833 6.60156 15.3996 6.60156Z" stroke="#05AF01" stroke-width="2" stroke-linecap="round" stroke-linejoin="round"/>
<path d="M3.4 11.4H2.6C2.17565 11.4 1.76869 11.2314 1.46863 10.9314C1.16857 10.6313 1 10.2243 1 9.8V2.6C1 2.17565 1.16857 1.76869 1.46863 1.46863C1.76869 1.16857 2.17565 1 2.6 1H9.8C10.2243 1 10.6313 1.16857 10.9314 1.46863C11.2314 1.76869 11.4 2.17565 11.4 2.6V3.4" stroke="#05AF01" stroke-width="2" stroke-linecap="round" stroke-linejoin="round"/>
</svg>
