<svg  viewBox="0 0 32 32" fill="none" xmlns="http://www.w3.org/2000/svg">
<path d="M10.668 18.6666C15.0862 18.6666 18.668 15.0849 18.668 10.6666C18.668 6.24835 15.0862 2.66663 10.668 2.66663C6.24969 2.66663 2.66797 6.24835 2.66797 10.6666C2.66797 15.0849 6.24969 18.6666 10.668 18.6666Z" stroke="currentColor" stroke-width="2.66667" stroke-linecap="round" stroke-linejoin="round"/>
<path d="M24.1185 13.8267C25.3789 14.2966 26.5005 15.0767 27.3795 16.0949C28.2585 17.1131 28.8666 18.3366 29.1475 19.6521C29.4284 20.9676 29.373 22.3327 28.9866 23.6211C28.6001 24.9096 27.895 26.0798 26.9364 27.0235C25.9778 27.9672 24.7968 28.654 23.5025 29.0203C22.2082 29.3866 20.8424 29.4207 19.5314 29.1193C18.2204 28.8179 17.0066 28.1908 16.0023 27.296C14.9979 26.4012 14.2353 25.2676 13.7852 24" stroke="currentColor" stroke-width="2.66667" stroke-linecap="round" stroke-linejoin="round"/>
<path d="M9.33203 8H10.6654V13.3333" stroke="currentColor" stroke-width="2.66667" stroke-linecap="round" stroke-linejoin="round"/>
<path d="M22.2798 18.5067L23.2131 19.4534L19.4531 23.2134" stroke="currentColor" stroke-width="2.66667" stroke-linecap="round" stroke-linejoin="round"/>
</svg>
