<svg width="7" height="5" viewBox="0 0 7 5" fill="none" xmlns="http://www.w3.org/2000/svg">
<path d="M3.49935 1.625C3.26728 1.625 3.04472 1.71719 2.88063 1.88128C2.71654 2.04538 2.62435 2.26794 2.62435 2.5C2.62435 2.73206 2.71654 2.95462 2.88063 3.11872C3.04472 3.28281 3.26728 3.375 3.49935 3.375C3.73141 3.375 3.95397 3.28281 4.11807 3.11872C4.28216 2.95462 4.37435 2.73206 4.37435 2.5C4.37435 2.26794 4.28216 2.04538 4.11807 1.88128C3.95397 1.71719 3.73141 1.625 3.49935 1.625ZM3.49935 3.95833C3.11257 3.95833 2.74164 3.80469 2.46815 3.5312C2.19466 3.25771 2.04102 2.88677 2.04102 2.5C2.04102 2.11323 2.19466 1.74229 2.46815 1.4688C2.74164 1.19531 3.11257 1.04167 3.49935 1.04167C3.88612 1.04167 4.25706 1.19531 4.53055 1.4688C4.80404 1.74229 4.95768 2.11323 4.95768 2.5C4.95768 2.88677 4.80404 3.25771 4.53055 3.5312C4.25706 3.80469 3.88612 3.95833 3.49935 3.95833ZM3.49935 0.3125C2.04102 0.3125 0.795599 1.21958 0.291016 2.5C0.795599 3.78042 2.04102 4.6875 3.49935 4.6875C4.95768 4.6875 6.2031 3.78042 6.70768 2.5C6.2031 1.21958 4.95768 0.3125 3.49935 0.3125Z" fill="#061A29"/>
</svg>
