<svg width="36" height="36" viewBox="0 0 36 36" fill="none" xmlns="http://www.w3.org/2000/svg">
<path d="M29.9306 11.6093L30.9478 17.4957C31.0075 17.8408 30.9911 18.1946 30.8997 18.5326C30.8083 18.8707 30.6442 19.1846 30.4189 19.4526C30.1935 19.7205 29.9123 19.936 29.595 20.084C29.2776 20.2319 28.9318 20.3088 28.5817 20.3091H21.1068C20.9323 20.3091 20.76 20.347 20.6017 20.4203C20.4434 20.4936 20.3029 20.6004 20.1901 20.7335C20.0772 20.8665 19.9947 21.0225 19.9482 21.1906C19.9017 21.3588 19.8924 21.535 19.9208 21.7071L20.8774 27.543C21.0319 28.4906 20.9877 29.46 20.7475 30.3896C20.6439 30.7734 20.4452 31.1248 20.1698 31.4115C19.8945 31.6982 19.5513 31.9109 19.1721 32.03L18.9629 32.0978C18.4898 32.2491 17.9768 32.2141 17.5288 31.9997C17.0382 31.7631 16.6804 31.3317 16.5477 30.8195L15.861 28.1735C15.6427 27.3314 15.325 26.5182 14.9145 25.7512C14.3158 24.6301 13.3895 23.7313 12.4258 22.9017L10.3497 21.1127C10.0616 20.8638 9.83669 20.5502 9.69325 20.1976C9.5498 19.845 9.49194 19.4635 9.5244 19.0842L10.6959 5.53248C10.7475 4.93315 11.022 4.37496 11.4652 3.96815C11.9083 3.56134 12.4879 3.33548 13.0894 3.33517H19.7953C24.819 3.33517 29.1054 6.83528 29.9306 11.6093Z" fill="white"/>
<path fill-rule="evenodd" clip-rule="evenodd" d="M4.96569 21.3915C5.24452 21.4037 5.51727 21.3077 5.72697 21.1236C5.93668 20.9394 6.06712 20.6813 6.09104 20.4033L7.4905 4.19254C7.51421 3.95114 7.48846 3.70744 7.41482 3.47632C7.34118 3.24521 7.2212 3.03153 7.06221 2.84834C6.90322 2.66515 6.70856 2.51629 6.49011 2.41085C6.27166 2.30542 6.034 2.24562 5.79167 2.23512C5.54933 2.22461 5.3074 2.26361 5.08064 2.34974C4.85389 2.43588 4.64707 2.56733 4.47282 2.73607C4.29857 2.90482 4.16055 3.10731 4.06719 3.33119C3.97382 3.55506 3.92708 3.79562 3.9298 4.03817V20.3109C3.92992 20.5898 4.03773 20.8579 4.23073 21.0593C4.42374 21.2606 4.68704 21.3796 4.96569 21.3915Z" fill="white"/>
</svg>
