<svg width="24" height="22" viewBox="0 0 24 22" fill="none" xmlns="http://www.w3.org/2000/svg">
<path d="M4.66667 2.66602H0.666667C0.3 2.66602 0 2.96602 0 3.33268V17.9993C0 18.366 0.3 18.666 0.666667 18.666H4.66667C5.03333 18.666 5.33333 18.366 5.33333 17.9993V3.33268C5.33333 2.96602 5.03333 2.66602 4.66667 2.66602ZM4 6.66602H1.33333V5.33268H4V6.66602ZM11.3333 2.66602H7.33333C6.96667 2.66602 6.66667 2.96602 6.66667 3.33268V17.9993C6.66667 18.366 6.96667 18.666 7.33333 18.666H11.3333C11.7 18.666 12 18.366 12 17.9993V3.33268C12 2.96602 11.7 2.66602 11.3333 2.66602ZM10.6667 6.66602H8V5.33268H10.6667V6.66602Z" fill="#05834B"/>
<path d="M15.9389 3.69786L12.3669 5.49786C12.2091 5.57731 12.0892 5.71618 12.0337 5.88393C11.9782 6.05169 11.9916 6.23462 12.0709 6.39253L18.0709 18.2992C18.1504 18.457 18.2892 18.5769 18.457 18.6324C18.6247 18.6879 18.8077 18.6745 18.9656 18.5952L22.5376 16.7952C22.6954 16.7157 22.8152 16.5769 22.8707 16.4091C22.9262 16.2414 22.9129 16.0584 22.8336 15.9005L16.8336 3.99386C16.7541 3.83603 16.6153 3.7162 16.4475 3.66069C16.2797 3.60519 16.0968 3.61856 15.9389 3.69786Z" fill="#05834B"/>
<path d="M19.3333 18.0007C19.3333 18.1775 19.2631 18.347 19.1381 18.4721C19.013 18.5971 18.8435 18.6673 18.6667 18.6673C18.4899 18.6673 18.3203 18.5971 18.1953 18.4721C18.0702 18.347 18 18.1775 18 18.0007C18 17.8238 18.0702 17.6543 18.1953 17.5292C18.3203 17.4042 18.4899 17.334 18.6667 17.334C18.8435 17.334 19.013 17.4042 19.1381 17.5292C19.2631 17.6543 19.3333 17.8238 19.3333 18.0007Z" fill="#05834B"/>
</svg>
