<svg width="165" height="48" viewBox="0 0 165 48" fill="none" xmlns="http://www.w3.org/2000/svg">
<rect x="0.5" width="163.604" height="47.1652" rx="22.1087" fill="#121F3E"/>
<path fill-rule="evenodd" clip-rule="evenodd" d="M13.5922 8.39206C13.2342 8.77842 13.0273 9.36879 13.0273 10.1415V37.5484C13.0273 38.3211 13.2342 38.9115 13.6046 39.2823L13.7003 39.3658L29.0357 24.0103V23.6672L13.6879 8.30859L13.5922 8.39206Z" fill="#FDFDFF"/>
<path fill-rule="evenodd" clip-rule="evenodd" d="M35.2224 29.1487L30.1074 24.0271V23.6685L35.2224 18.5469L35.3335 18.6149L41.3838 22.0581C43.1155 23.0349 43.1155 24.6483 41.3838 25.6374L35.3335 29.0806L35.2224 29.1487Z" fill="#FDFDFF"/>
<path fill-rule="evenodd" clip-rule="evenodd" d="M34.7921 29.6196L29.566 24.3867L14.1348 39.838C14.6997 40.4439 15.6474 40.5119 16.7062 39.9215L34.7921 29.6196Z" fill="#FDFDFF"/>
<path fill-rule="evenodd" clip-rule="evenodd" d="M34.7921 18.0724L16.7062 7.78584C15.6474 7.18009 14.6966 7.2635 14.1348 7.8693L29.566 23.3052L34.7921 18.0724Z" fill="#FDFDFF"/>
<path d="M51.86 17.5453C52.9751 17.5453 53.9169 16.9715 54.2741 16.1379V17.4587H55.1293V14.8605C55.1293 13.9945 54.3391 13.5615 53.787 13.5615H51.9142V14.3626H53.6246C53.9927 14.3626 54.22 14.5899 54.22 14.9363C54.22 16.0297 53.1158 16.7333 51.8709 16.7333C50.312 16.7333 49.1645 15.6291 49.1645 13.6697C49.1645 11.6995 50.312 10.6278 51.8709 10.6278C53.04 10.6278 53.9927 11.3098 54.1659 12.2732H55.1402C54.967 10.8226 53.6138 9.7942 51.8817 9.7942C49.998 9.7942 48.2227 11.0824 48.2227 13.6697C48.2227 16.257 49.9872 17.5453 51.86 17.5453ZM60.3954 15.7049C60.2222 16.3869 59.6593 16.7767 58.7716 16.7767C57.7432 16.7767 56.9962 15.9756 56.9312 14.8497H61.1965C61.2073 14.7739 61.2181 14.5899 61.2181 14.4708C61.2181 13.0202 60.2655 11.916 58.6742 11.916C57.072 11.916 56.076 13.096 56.076 14.6982C56.076 16.257 57.1586 17.5453 58.7716 17.5453C60.1248 17.5453 61.0882 16.82 61.2723 15.7049H60.3954ZM58.6742 12.6521C59.6484 12.6521 60.2655 13.2367 60.3305 14.1569H56.9745C57.1369 13.1934 57.754 12.6521 58.6742 12.6521ZM62.9161 10.2597V12.0026H61.7795V12.7712H62.9161V15.7482C62.9161 16.8091 63.5873 17.4587 64.6266 17.4587H65.4601V16.69H64.659C64.1286 16.69 63.7822 16.3328 63.7822 15.7266V12.7712H65.4601V12.0026H63.7822V10.2597H62.9161ZM68.9162 9.76172V10.9742H69.9121V9.76172H68.9162ZM68.9811 17.4587H69.8472V12.0026H68.9811V17.4587ZM71.8705 10.2597V12.0026H70.7338V12.7712H71.8705V15.7482C71.8705 16.8091 72.5416 17.4587 73.5809 17.4587H74.4145V16.69H73.6134C73.0829 16.69 72.7365 16.3328 72.7365 15.7266V12.7712H74.4145V12.0026H72.7365V10.2597H71.8705ZM80.3928 17.5453C82.0167 17.5453 83.175 16.3653 83.175 14.7306C83.175 13.0852 82.0167 11.916 80.3928 11.916C78.7798 11.916 77.6215 13.0852 77.6215 14.7306C77.6215 16.3653 78.7798 17.5453 80.3928 17.5453ZM80.3928 16.7658C79.2778 16.7658 78.5092 15.9214 78.5092 14.7306C78.5092 13.5398 79.2778 12.6954 80.3928 12.6954C81.5187 12.6954 82.2873 13.5398 82.2873 14.7306C82.2873 15.9214 81.5187 16.7658 80.3928 16.7658ZM84.2889 17.4587H85.155V14.5141C85.155 13.4532 85.8262 12.7063 86.7572 12.7063C87.5799 12.7063 88.1212 13.3341 88.1212 14.2651V17.4587H88.9872V14.1244C88.9872 12.7929 88.1861 11.916 86.952 11.916C86.1185 11.916 85.4365 12.2949 85.155 13.0527V12.0026H84.2889V17.4587Z" fill="white"/>
<path d="M55.1349 36.0178C56.9666 36.0178 58.467 35.0825 58.9736 33.699V35.8619H61.273V30.7761C61.273 29.4705 60.2012 28.5352 59.0126 28.5352H55.3882V30.5033H58.1552C58.5839 30.5033 58.8567 30.7761 58.8567 31.2048C58.8567 32.6662 57.0835 33.8938 55.2323 33.8938C52.8161 33.8938 50.9454 32.0621 50.9454 29.0418C50.9454 26.0215 52.8161 24.2873 55.2713 24.2873C57.1419 24.2873 58.4865 25.32 58.7203 26.8594H61.3119C61.0976 24.0339 58.6424 22.0659 55.2908 22.0659C51.7443 22.0659 48.4707 24.3847 48.4707 29.0418C48.4707 33.699 51.6859 36.0178 55.1349 36.0178ZM67.9025 36.0178C70.8838 36.0178 73.0273 33.8743 73.0273 30.9514C73.0273 28.0286 70.8838 25.8851 67.9025 25.8851C64.9017 25.8851 62.7582 28.0286 62.7582 30.9514C62.7582 33.8743 64.9017 36.0178 67.9025 36.0178ZM67.9025 33.9523C66.2657 33.9523 65.1745 32.7247 65.1745 30.9514C65.1745 29.1782 66.2657 27.9506 67.9025 27.9506C69.5198 27.9506 70.611 29.1782 70.611 30.9514C70.611 32.7247 69.5198 33.9523 67.9025 33.9523ZM79.2628 36.0178C82.2441 36.0178 84.3876 33.8743 84.3876 30.9514C84.3876 28.0286 82.2441 25.8851 79.2628 25.8851C76.262 25.8851 74.1185 28.0286 74.1185 30.9514C74.1185 33.8743 76.262 36.0178 79.2628 36.0178ZM79.2628 33.9523C77.626 33.9523 76.5348 32.7247 76.5348 30.9514C76.5348 29.1782 77.626 27.9506 79.2628 27.9506C80.8801 27.9506 81.9713 29.1782 81.9713 30.9514C81.9713 32.7247 80.8801 33.9523 79.2628 33.9523ZM93.1173 26.041V27.1517C92.5522 26.3917 91.4805 25.8851 90.2529 25.8851C87.33 25.8851 85.6152 27.9506 85.6152 30.9514C85.6152 33.9523 87.33 36.0178 90.2918 36.0178C91.5194 36.0178 92.6496 35.5306 93.1368 34.7707V36.1737C93.1368 37.2064 92.4548 37.9274 91.5 37.9274H86.9792V39.837H91.8312C94.0331 39.837 95.5141 38.4535 95.5141 36.4075V26.041H93.1173ZM90.6231 33.9523C89.0252 33.9523 87.9925 32.7636 87.9925 30.9514C87.9925 29.1393 89.0252 27.9506 90.6231 27.9506C92.2404 27.9506 93.2927 29.1393 93.2927 30.9514C93.2927 32.7636 92.2404 33.9523 90.6231 33.9523ZM97.9395 35.8619H100.317V21.832H97.9395V35.8619ZM109.36 32.5883C109.107 33.5236 108.308 34.0302 107.08 34.0302C105.56 34.0302 104.547 33.0169 104.371 31.4386H111.62C111.64 31.2437 111.659 30.9514 111.659 30.6202C111.659 28.2819 110.178 25.8851 106.885 25.8851C103.67 25.8851 102.072 28.3208 102.072 30.9125C102.072 33.4846 103.865 36.0178 107.08 36.0178C109.496 36.0178 111.328 34.6733 111.698 32.5883H109.36ZM106.885 27.6778C108.308 27.6778 109.165 28.6131 109.262 29.8602H104.43C104.683 28.3793 105.541 27.6778 106.885 27.6778ZM117.808 35.8619H120.4V30.6786H123.284C126.129 30.6786 127.824 28.9249 127.824 26.4502C127.824 23.9755 126.129 22.2217 123.284 22.2217H117.808V35.8619ZM120.4 28.5157V24.3847H123.167C124.687 24.3847 125.31 25.359 125.31 26.4502C125.31 27.5414 124.687 28.5157 123.167 28.5157H120.4ZM129.395 35.8619H131.772V21.832H129.395V35.8619ZM137.972 25.8851C135.42 25.8851 133.763 27.405 133.646 29.3536H135.79C135.829 28.4767 136.589 27.6778 137.855 27.6778C139.122 27.6778 139.862 28.3598 139.862 29.3146C139.862 29.7043 139.629 29.9771 139.141 29.9771H137.329C135.127 29.9771 133.646 31.1658 133.646 33.0754C133.646 34.7707 134.971 36.0178 136.92 36.0178C138.323 36.0178 139.453 35.3747 139.862 34.4005V35.8619H142.22V29.5485C142.22 27.3271 140.466 25.8851 137.972 25.8851ZM137.485 34.2446C136.589 34.2446 135.965 33.7379 135.965 32.978C135.965 32.1206 136.647 31.5555 137.66 31.5555H139.862V31.7114C139.862 33.1923 138.986 34.2446 137.485 34.2446ZM152.312 26.041H149.857L147.597 32.7831L145.317 26.041H142.881L146.467 35.8619L145.083 39.837H147.363L148.883 35.3942L152.312 26.041Z" fill="white"/>
</svg>
