<svg width="16" height="18" viewBox="0 0 16 18" fill="none" xmlns="http://www.w3.org/2000/svg">
<path d="M8.391 1.26236C8.29509 1.16466 8.18013 1.08769 8.05325 1.03622C7.92638 0.984758 7.79029 0.959897 7.65341 0.963178C7.51653 0.966459 7.38179 0.997814 7.25752 1.0553C7.13326 1.11278 7.02212 1.19517 6.931 1.29736L0.754 8.21636C0.590402 8.39963 0.499987 8.6367 0.5 8.88236V16.5004C0.5 16.7656 0.605357 17.0199 0.792893 17.2075C0.98043 17.395 1.23478 17.5004 1.5 17.5004H4.5C4.76522 17.5004 5.01957 17.395 5.20711 17.2075C5.39464 17.0199 5.5 16.7656 5.5 16.5004V13.0004C5.5 12.7351 5.60536 12.4808 5.79289 12.2933C5.98043 12.1057 6.23478 12.0004 6.5 12.0004H9.5C9.76522 12.0004 10.0196 12.1057 10.2071 12.2933C10.3946 12.4808 10.5 12.7351 10.5 13.0004V16.5004C10.5 16.7656 10.6054 17.0199 10.7929 17.2075C10.9804 17.395 11.2348 17.5004 11.5 17.5004H14.5C14.7652 17.5004 15.0196 17.395 15.2071 17.2075C15.3946 17.0199 15.5 16.7656 15.5 16.5004V8.90936C15.4997 8.64745 15.3966 8.39611 15.213 8.20936L8.391 1.26236Z" stroke="white"/>
</svg>
