<svg width="8" height="8" viewBox="0 0 8 8" fill="none" xmlns="http://www.w3.org/2000/svg">
<path fill-rule="evenodd" clip-rule="evenodd" d="M2.52049 7.17668C2.7125 7.26837 2.92257 7.31601 3.13534 7.31611H6.1902C6.53085 7.31611 6.86029 7.19438 7.11909 6.97287C7.3779 6.75137 7.54903 6.44468 7.60163 6.10811L7.95934 3.82068C7.98493 3.65761 7.97489 3.49092 7.9299 3.3321C7.88492 3.17328 7.80606 3.02608 7.69876 2.90065C7.59146 2.77521 7.45826 2.6745 7.30832 2.60546C7.15839 2.53641 6.99527 2.50067 6.8302 2.50068H4.95477V1.1544C4.95504 0.948723 4.88702 0.748779 4.76138 0.58594C4.63574 0.423102 4.45959 0.306585 4.26057 0.254673C4.06155 0.202762 3.85093 0.218393 3.66176 0.299115C3.47259 0.379837 3.31557 0.521081 3.21534 0.700683L2.02849 2.82068C1.95687 2.94867 1.91929 3.09288 1.91934 3.23954V6.34925C1.91932 6.51114 1.96514 6.66973 2.0515 6.80665C2.13787 6.94358 2.26124 7.05325 2.40734 7.12297L2.52163 7.17725L2.52049 7.17668ZM0.597058 2.92525C0.522269 2.92518 0.448199 2.93985 0.379081 2.96841C0.309963 2.99698 0.247154 3.03889 0.194244 3.09175C0.141333 3.14461 0.0993596 3.20738 0.0707218 3.27646C0.0420839 3.34555 0.0273437 3.41961 0.0273438 3.4944V6.41554C0.0273438 6.56664 0.0873671 6.71155 0.194209 6.81839C0.301051 6.92523 0.44596 6.98525 0.597058 6.98525H0.880487C0.956263 6.98525 1.02894 6.95515 1.08252 6.90157C1.1361 6.84799 1.1662 6.77532 1.1662 6.69954V3.2104C1.1662 3.13462 1.1361 3.06195 1.08252 3.00837C1.02894 2.95479 0.956263 2.92468 0.880487 2.92468L0.597058 2.92525Z" fill="#FCFCFD"/>
</svg>
