<svg width="36" height="35" viewBox="0 0 36 35" fill="none" xmlns="http://www.w3.org/2000/svg">
<path d="M29.9306 23.4663L30.9478 17.5799C31.0075 17.2349 30.9911 16.881 30.8997 16.543C30.8083 16.205 30.6442 15.8911 30.4189 15.6231C30.1935 15.3551 29.9123 15.1396 29.595 14.9917C29.2776 14.8437 28.9318 14.7669 28.5817 14.7666H21.1068C20.9323 14.7666 20.76 14.7287 20.6017 14.6554C20.4434 14.5821 20.3029 14.4752 20.1901 14.3422C20.0772 14.2092 19.9947 14.0532 19.9482 13.885C19.9017 13.7169 19.8924 13.5407 19.9208 13.3686L20.8774 7.53264C21.0319 6.58505 20.9877 5.61568 20.7475 4.68609C20.6439 4.30233 20.4452 3.95088 20.1698 3.66417C19.8945 3.37747 19.5513 3.16476 19.1721 3.04569L18.9629 2.97788C18.4898 2.82654 17.9768 2.86163 17.5288 3.07599C17.0382 3.3126 16.6804 3.74398 16.5477 4.25616L15.861 6.90216C15.6427 7.7443 15.325 8.55748 14.9145 9.32453C14.3158 10.4455 13.3895 11.3444 12.4258 12.174L10.3497 13.963C10.0616 14.2119 9.83669 14.5254 9.69325 14.878C9.5498 15.2306 9.49194 15.6122 9.5244 15.9915L10.6959 29.5432C10.7475 30.1425 11.022 30.7007 11.4652 31.1075C11.9083 31.5143 12.4879 31.7402 13.0894 31.7405H19.7953C24.819 31.7405 29.1054 28.2404 29.9306 23.4663Z" fill="#4ADD80"/>
<path fill-rule="evenodd" clip-rule="evenodd" d="M4.96569 13.6846C5.24452 13.6724 5.51727 13.7685 5.72697 13.9526C5.93668 14.1368 6.06712 14.3948 6.09104 14.6729L7.4905 30.8836C7.51421 31.125 7.48846 31.3687 7.41482 31.5998C7.34118 31.831 7.2212 32.0446 7.06221 32.2278C6.90322 32.411 6.70856 32.5599 6.49011 32.6653C6.27166 32.7708 6.034 32.8305 5.79167 32.8411C5.54933 32.8516 5.3074 32.8126 5.08064 32.7264C4.85389 32.6403 4.64707 32.5088 4.47282 32.3401C4.29857 32.1714 4.16055 31.9689 4.06719 31.745C3.97382 31.5211 3.92708 31.2806 3.9298 31.038V14.7652C3.92992 14.4863 4.03773 14.2182 4.23073 14.0169C4.42374 13.8156 4.68704 13.6965 4.96569 13.6846Z" fill="#4ADD80"/>
</svg>
