<svg width="23" height="23" viewBox="0 0 23 23" fill="none" xmlns="http://www.w3.org/2000/svg">
<g clip-path="url(#clip0_1752_3873)">
<rect x="0.667969" y="0.667969" width="21.6667" height="21.6667" rx="10.8333" fill="#F0F4F3"/>
<path fill-rule="evenodd" clip-rule="evenodd" d="M7.74927 10.668C7.74927 9.67341 8.14435 8.71958 8.84762 8.01632C9.55088 7.31306 10.5047 6.91797 11.4993 6.91797C12.4938 6.91797 13.4477 7.31306 14.1509 8.01632C14.8542 8.71958 15.2493 9.67341 15.2493 10.668C15.2493 11.6625 14.8542 12.6164 14.1509 13.3196C13.4477 14.0229 12.4938 14.418 11.4993 14.418C10.5047 14.418 9.55088 14.0229 8.84762 13.3196C8.14435 12.6164 7.74927 11.6625 7.74927 10.668ZM4.6251 22.4221C4.6532 20.6175 5.3898 18.8963 6.6759 17.6301C7.962 16.3639 9.69444 15.6542 11.4993 15.6542C13.3041 15.6542 15.0365 16.3639 16.3226 17.6301C17.6087 18.8963 18.3453 20.6175 18.3734 22.4221C18.3756 22.5436 18.3423 22.6631 18.2776 22.766C18.213 22.8688 18.1197 22.9506 18.0093 23.0013C15.9669 23.9377 13.7461 24.421 11.4993 24.418C9.1776 24.418 6.97177 23.9113 4.98927 23.0013C4.87884 22.9506 4.78558 22.8688 4.7209 22.766C4.65622 22.6631 4.62293 22.5436 4.6251 22.4221Z" fill="#05834B"/>
</g>
<rect x="0.876308" y="0.876308" width="21.25" height="21.25" rx="10.625" stroke="#05834B" stroke-width="0.416678"/>
<defs>
<clipPath id="clip0_1752_3873">
<rect x="0.667969" y="0.667969" width="21.6667" height="21.6667" rx="10.8333" fill="white"/>
</clipPath>
</defs>
</svg>
