<svg width="100%" height="100%" viewBox="0 0 431 312" fill="none" xmlns="http://www.w3.org/2000/svg">
<g clip-path="url(#clip0_357_6951)">
<path d="M338.745 28.0273C337.656 20.0418 336.291 11.4682 330.658 5.70367C328.871 3.87458 326.732 2.42635 324.37 1.44626C322.008 0.466179 319.472 -0.0254518 316.915 0.00101449C314.358 0.0274808 311.833 0.571501 309.492 1.60026C307.151 2.62903 305.042 4.12123 303.293 5.98691C299.193 10.3607 297.383 16.5021 297.217 22.4947C297.051 28.4872 298.386 34.4133 299.867 40.2225C307.702 40.379 315.479 38.8482 322.671 35.734C324.433 34.8737 326.261 34.1559 328.138 33.5874C330.038 33.1039 331.392 34.3207 333.16 35.1692L334.13 33.3116C334.924 34.7895 337.383 34.3515 338.275 32.9304C339.167 31.5095 338.972 29.6896 338.745 28.0273Z" fill="#2F2E41"/>
<path d="M306.018 61.7446L308.287 50.1555L291.277 42.7912L260.866 28.2218C260.654 26.8699 260.036 25.6142 259.095 24.6208C258.154 23.6274 256.934 22.9432 255.595 22.6585C254.257 22.3739 252.863 22.5023 251.599 23.0268C250.335 23.5513 249.26 24.4472 248.517 25.5959C247.773 26.7446 247.396 28.092 247.434 29.4598C247.473 30.8277 247.926 32.1516 248.734 33.2564C249.541 34.3611 250.665 35.1947 251.957 35.6469C253.248 36.099 254.647 36.1484 255.967 35.7885L284.922 53.6579L306.018 61.7446Z" fill="#FFB8B8"/>
<path d="M294.6 59.7832L306.92 47.1885L307.164 47.2626C307.317 47.309 322.624 51.9756 332.383 56.7178C333.486 57.2129 334.468 57.9427 335.26 58.8562C336.052 59.7697 336.635 60.845 336.969 62.007C337.454 63.6341 337.454 65.3676 336.969 66.9946C336.483 68.6217 335.533 70.0715 334.234 71.166C332.9 72.3606 331.25 73.1455 329.481 73.4271C327.712 73.7087 325.9 73.475 324.26 72.7539L294.6 59.7832Z" fill="#05834B"/>
<path d="M294.562 115.156L329.207 124.413L336.203 91.6853L304.404 81.8428L294.562 115.156Z" fill="#FFB8B8"/>
<path d="M333.085 106.273L299.241 98.4898L292.761 82.7825C292.233 80.5404 292.361 78.194 293.13 76.0226C293.898 73.8512 295.274 71.9464 297.094 70.535L309.459 60.0955L316.088 51.6278L315.366 47.1404C315.237 46.2435 315.426 45.3297 315.899 44.5569C316.372 43.7841 317.1 43.2009 317.957 42.908L326.792 39.7399C327.768 39.3747 328.847 39.3943 329.81 39.7946C330.773 40.195 331.548 40.9462 331.977 41.8963L332.913 44.0629C332.913 44.0629 336.908 45.9428 339.161 47.0002C340.32 47.5272 341.354 48.293 342.197 49.2475C343.039 50.202 343.671 51.3237 344.05 52.5392C347.497 63.68 346.568 75.7158 341.451 86.1954L333.085 106.273Z" fill="#05834B"/>
<path d="M32.1035 273.011L15.7399 268.632C13.3339 260.067 13.055 251.045 14.9273 242.348C22.0663 256.46 41.2393 259.12 52.5975 270.125C56.1137 273.585 58.8063 277.791 60.4759 282.432C62.1454 287.074 62.7491 292.032 62.2421 296.938L66.1621 308.295C58.2054 307.98 50.4115 305.944 43.3174 302.327C36.2234 298.71 29.9977 293.599 25.0695 287.344C22.3395 283.808 20.0657 279.942 18.3017 275.837C25.1489 274.834 32.1035 273.011 32.1035 273.011Z" fill="#F2F2F2"/>
<path d="M235.401 311.485H75.017C70.7187 311.481 66.5978 309.771 63.5585 306.732C60.5192 303.692 58.8095 299.571 58.8047 295.273V82.9058C58.8095 78.6075 60.5192 74.4866 63.5585 71.4472C66.5979 68.4079 70.7187 66.6982 75.017 66.6934H235.401C239.7 66.6982 243.821 68.4079 246.86 71.4472C249.899 74.4866 251.609 78.6074 251.614 82.9058V295.273C251.609 299.571 249.899 303.692 246.86 306.732C243.821 309.771 239.7 311.481 235.401 311.485Z" fill="#E6E6E6"/>
<path d="M174.188 298.341H86.2911C82.3773 298.336 78.6252 296.779 75.8578 294.012C73.0903 291.244 71.5337 287.492 71.5293 283.578V94.6006C71.5337 90.6869 73.0904 86.9348 75.8578 84.1674C78.6252 81.3999 82.3774 79.8433 86.2911 79.8389H224.128C228.042 79.8433 231.794 81.3999 234.561 84.1674C237.329 86.9348 238.885 90.6869 238.89 94.6006V233.639C238.87 250.793 232.047 267.239 219.917 279.368C207.788 291.498 191.342 298.321 174.188 298.341Z" fill="white"/>
<path d="M210.377 116.12H100.04C99.5679 116.12 99.0998 116.028 98.663 115.848C98.2262 115.667 97.8292 115.403 97.4946 115.069C97.1601 114.735 96.8945 114.339 96.7131 113.902C96.5318 113.466 96.4381 112.998 96.4375 112.526C96.4369 112.053 96.5294 111.585 96.7097 111.148C96.89 110.712 97.1545 110.315 97.4883 109.98C97.822 109.645 98.2184 109.38 98.6547 109.198C99.0911 109.017 99.5589 108.923 100.031 108.923H210.377C211.331 108.922 212.247 109.3 212.923 109.974C213.598 110.648 213.979 111.562 213.98 112.517C213.981 113.471 213.603 114.387 212.929 115.063C212.255 115.738 211.34 116.119 210.386 116.12H210.377Z" fill="#05834B"/>
<path d="M210.379 130.338H100.042C99.0876 130.338 98.1722 129.959 97.4974 129.284C96.8225 128.609 96.4434 127.694 96.4434 126.739C96.4434 125.785 96.8225 124.87 97.4974 124.195C98.1722 123.52 99.0876 123.141 100.042 123.141H210.379C211.333 123.141 212.248 123.52 212.923 124.195C213.598 124.87 213.977 125.785 213.977 126.739C213.977 127.694 213.598 128.609 212.923 129.284C212.248 129.959 211.333 130.338 210.379 130.338Z" fill="#05834B"/>
<path d="M147.87 144.558H100.042C99.0876 144.558 98.1722 144.178 97.4974 143.504C96.8225 142.829 96.4434 141.913 96.4434 140.959C96.4434 140.005 96.8225 139.089 97.4974 138.414C98.1722 137.739 99.0876 137.36 100.042 137.36H147.87C148.825 137.36 149.74 137.739 150.415 138.414C151.09 139.089 151.469 140.005 151.469 140.959C151.469 141.913 151.09 142.829 150.415 143.504C149.74 144.178 148.825 144.558 147.87 144.558Z" fill="#05834B"/>
<path d="M210.377 174.338H100.04C99.0861 174.34 98.1703 173.962 97.4946 173.288C96.819 172.614 96.4387 171.699 96.4375 170.745C96.4363 169.79 96.8143 168.874 97.4883 168.199C98.1623 167.523 99.0771 167.143 100.031 167.142H210.377C211.331 167.14 212.247 167.518 212.923 168.192C213.598 168.866 213.979 169.781 213.98 170.736C213.981 171.69 213.603 172.606 212.929 173.281C212.255 173.957 211.34 174.337 210.386 174.338H210.377Z" fill="#E4E4E4"/>
<path d="M210.379 188.558H100.042C99.0876 188.558 98.1722 188.178 97.4974 187.504C96.8225 186.829 96.4434 185.913 96.4434 184.959C96.4434 184.005 96.8225 183.089 97.4974 182.414C98.1722 181.739 99.0876 181.36 100.042 181.36H210.379C211.333 181.36 212.248 181.739 212.923 182.414C213.598 183.089 213.977 184.005 213.977 184.959C213.977 185.913 213.598 186.829 212.923 187.504C212.248 188.178 211.333 188.558 210.379 188.558Z" fill="#E4E4E4"/>
<path d="M147.87 202.776H100.042C99.0876 202.776 98.1722 202.397 97.4974 201.722C96.8225 201.047 96.4434 200.132 96.4434 199.178C96.4434 198.223 96.8225 197.308 97.4974 196.633C98.1722 195.958 99.0876 195.579 100.042 195.579H147.87C148.825 195.579 149.74 195.958 150.415 196.633C151.09 197.308 151.469 198.223 151.469 199.178C151.469 200.132 151.09 201.047 150.415 201.722C149.74 202.397 148.825 202.776 147.87 202.776Z" fill="#E4E4E4"/>
<path d="M210.377 232.556H100.04C99.0861 232.557 98.1703 232.179 97.4946 231.505C96.819 230.831 96.4387 229.917 96.4375 228.962C96.4363 228.008 96.8143 227.092 97.4883 226.416C98.1623 225.741 99.0771 225.361 100.031 225.359H210.377C211.331 225.358 212.247 225.736 212.923 226.41C213.598 227.084 213.979 227.999 213.98 228.953C213.981 229.908 213.603 230.823 212.929 231.499C212.255 232.175 211.34 232.555 210.386 232.556H210.377Z" fill="#E4E4E4"/>
<path d="M210.379 246.775H100.042C99.0876 246.775 98.1722 246.396 97.4974 245.721C96.8225 245.046 96.4434 244.131 96.4434 243.177C96.4434 242.222 96.8225 241.307 97.4974 240.632C98.1722 239.957 99.0876 239.578 100.042 239.578H210.379C211.333 239.578 212.248 239.957 212.923 240.632C213.598 241.307 213.977 242.222 213.977 243.177C213.977 244.131 213.598 245.046 212.923 245.721C212.248 246.396 211.333 246.775 210.379 246.775Z" fill="#E4E4E4"/>
<path d="M147.869 260.995H100.041C99.0877 260.993 98.1742 260.613 97.5008 259.939C96.8274 259.264 96.4492 258.35 96.4492 257.396C96.4492 256.443 96.8274 255.529 97.5008 254.854C98.1742 254.18 99.0877 253.8 100.041 253.798H147.869C148.822 253.8 149.736 254.18 150.409 254.854C151.083 255.529 151.461 256.443 151.461 257.396C151.461 258.35 151.083 259.264 150.409 259.939C149.736 260.613 148.822 260.993 147.869 260.995Z" fill="#E4E4E4"/>
<path d="M243.693 117.606C269.53 117.606 290.475 96.6609 290.475 70.8243C290.475 44.9877 269.53 24.043 243.693 24.043C217.857 24.043 196.912 44.9877 196.912 70.8243C196.912 96.6609 217.857 117.606 243.693 117.606Z" fill="#05834B"/>
<path opacity="0.16" d="M243.693 111.125C231.858 111.123 220.463 106.635 211.806 98.5651C203.148 90.495 197.872 79.4429 197.04 67.6367C196.965 68.7258 196.912 69.8214 196.912 70.9298C196.917 83.3339 201.848 95.2284 210.62 103.998C219.393 112.767 231.289 117.694 243.693 117.694C256.098 117.694 267.994 112.767 276.767 103.998C285.539 95.2284 290.47 83.3339 290.475 70.9298C290.475 69.8214 290.422 68.7258 290.346 67.6367C289.515 79.4429 284.239 90.495 275.581 98.5651C266.924 106.635 255.529 111.123 243.693 111.125Z" fill="#231F20"/>
<path d="M243.693 93.6852C242.139 93.6834 240.65 93.0656 239.552 91.9672C238.454 90.8689 237.836 89.3797 237.834 87.8265V53.9273C237.833 53.1574 237.984 52.3949 238.278 51.6834C238.572 50.9719 239.004 50.3253 239.548 49.7806C240.092 49.236 240.738 48.8039 241.449 48.509C242.16 48.2142 242.923 48.0625 243.693 48.0625C244.462 48.0625 245.225 48.2142 245.936 48.509C246.647 48.8039 247.293 49.236 247.837 49.7806C248.382 50.3253 248.813 50.9719 249.107 51.6834C249.401 52.3949 249.552 53.1574 249.551 53.9273V87.8265C249.549 89.3797 248.932 90.8688 247.833 91.9672C246.735 93.0655 245.246 93.6834 243.693 93.6852Z" fill="white"/>
<path d="M220.887 70.8763C220.889 69.323 221.506 67.8339 222.605 66.7356C223.703 65.6372 225.192 65.0194 226.745 65.0176H260.645C261.414 65.0168 262.177 65.1677 262.889 65.4617C263.6 65.7558 264.247 66.1872 264.791 66.7313C265.336 67.2754 265.768 67.9215 266.063 68.6327C266.358 69.3439 266.509 70.1063 266.509 70.8762C266.509 71.646 266.358 72.4084 266.063 73.1196C265.768 73.8308 265.336 74.4769 264.791 75.021C264.247 75.5651 263.6 75.9965 262.889 76.2906C262.177 76.5846 261.414 76.7356 260.645 76.7347H226.745C225.192 76.733 223.703 76.1152 222.605 75.017C221.506 73.9187 220.889 72.4296 220.887 70.8763Z" fill="white"/>
<path d="M314.018 80.8166L304.063 74.4639L290.984 87.5991L266.295 110.568C264.96 110.27 263.565 110.385 262.296 110.898C261.027 111.41 259.944 112.295 259.189 113.437C258.434 114.578 258.044 115.922 258.07 117.29C258.095 118.658 258.535 119.987 259.332 121.099C260.129 122.212 261.245 123.056 262.532 123.521C263.819 123.985 265.217 124.048 266.541 123.701C267.864 123.354 269.051 122.613 269.945 121.576C270.838 120.54 271.396 119.257 271.544 117.896L298.771 97.4894L314.018 80.8166Z" fill="#FFB8B8"/>
<path d="M308.015 90.7261L300.803 74.6513L300.961 74.4516C301.06 74.3262 311.005 61.7882 318.99 54.4423C319.854 53.5971 320.893 52.9506 322.033 52.5479C323.173 52.1452 324.387 51.996 325.59 52.1108C327.282 52.2548 328.895 52.8895 330.231 53.9369C331.568 54.9843 332.569 56.3989 333.113 58.0073C333.736 59.6862 333.863 61.5091 333.478 63.258C333.093 65.007 332.212 66.608 330.941 67.8697L308.015 90.7261Z" fill="#05834B"/>
<path d="M314.529 37.8893C323.172 37.8893 330.179 30.8824 330.179 22.2391C330.179 13.5957 323.172 6.58887 314.529 6.58887C305.886 6.58887 298.879 13.5957 298.879 22.2391C298.879 30.8824 305.886 37.8893 314.529 37.8893Z" fill="#FFB8B8"/>
<path d="M290.215 300.277H283.745L280.666 275.322H290.215V300.277Z" fill="#FFB8B8"/>
<path d="M293.628 311.485H288.988L288.16 307.105L286.039 311.485H273.733C273.143 311.485 272.569 311.297 272.094 310.947C271.619 310.598 271.268 310.106 271.092 309.542C270.917 308.979 270.926 308.375 271.118 307.817C271.31 307.26 271.676 306.778 272.161 306.443L281.988 299.656V295.228L292.325 295.844L293.628 311.485Z" fill="#2F2E41"/>
<path d="M371.303 294.78L365.291 297.173L353.201 275.127L362.073 271.595L371.303 294.78Z" fill="#FFB8B8"/>
<path d="M378.621 303.932L374.31 305.648L371.921 301.884L371.57 306.739L360.137 311.29C359.589 311.508 358.986 311.545 358.415 311.396C357.844 311.247 357.336 310.92 356.965 310.461C356.593 310.003 356.378 309.438 356.351 308.849C356.323 308.26 356.485 307.677 356.812 307.186L363.432 297.246L361.794 293.131L371.626 289.882L378.621 303.932Z" fill="#2F2E41"/>
<path d="M292.709 288.812H279.326L283.025 225.938L280.321 183.32L280.327 183.286L290.411 122.195C291.204 117.378 293.348 112.884 296.593 109.237L296.716 109.099L330.464 117.434L333.857 125.171C345.443 132.062 349.102 170.921 349.253 172.576L354.158 221.018L366.157 280.389L357.707 284.939L357.565 284.657L330.89 231.612L314.043 175.673L303.254 226.02L292.709 288.812Z" fill="#2F2E41"/>
<path d="M333.912 22.9766C333.358 19.3388 332.78 15.6706 331.479 12.2453C330.178 8.81996 328.081 5.61164 325.072 3.67124C320.309 0.599113 314.142 1.19162 308.802 2.95879C304.672 4.32545 300.641 6.40265 297.729 9.74209C294.816 13.0816 293.181 17.8466 294.264 22.2131C299.96 20.8672 305.657 19.5214 311.353 18.1755L310.729 18.6161C312.6 19.5487 314.233 20.8953 315.505 22.5534C316.778 24.2116 317.656 26.1378 318.072 28.1859C318.48 30.2588 318.421 32.3964 317.901 34.444C317.381 36.4916 316.412 38.3979 315.065 40.0252C318.95 38.647 322.835 37.2689 326.72 35.8908C329.118 35.0401 331.684 34.06 333.106 31.8781C334.755 29.3484 334.372 25.9955 333.912 22.9766Z" fill="#2F2E41"/>
<path d="M0.820472 311.334H430.18C430.397 311.334 430.606 311.248 430.76 311.094C430.914 310.94 431 310.731 431 310.514C431 310.296 430.914 310.088 430.76 309.934C430.606 309.78 430.397 309.693 430.18 309.693H0.820472C0.602866 309.693 0.394183 309.78 0.240312 309.934C0.0864415 310.088 0 310.296 0 310.514C0 310.731 0.0864415 310.94 0.240312 311.094C0.394183 311.248 0.602866 311.334 0.820472 311.334Z" fill="#CCCCCC"/>
</g>
<defs>
<clipPath id="clip0_357_6951">
<rect width="431" height="311.486" fill="white"/>
</clipPath>
</defs>
</svg>
