<svg width="19" height="19" viewBox="0 0 19 19" fill="none" xmlns="http://www.w3.org/2000/svg">
<path d="M6.75 1.18733H2.25C1.9019 1.18733 1.56806 1.32561 1.32192 1.57175C1.07578 1.8179 0.9375 2.15174 0.9375 2.49983V17.4998C0.9375 17.8479 1.07578 18.1818 1.32192 18.4279C1.56806 18.6741 1.9019 18.8123 2.25 18.8123H6.75C6.92236 18.8123 7.09303 18.7784 7.25227 18.7124C7.41151 18.6465 7.5562 18.5498 7.67808 18.4279C7.79995 18.306 7.89663 18.1613 7.96259 18.0021C8.02855 17.8429 8.0625 17.6722 8.0625 17.4998V2.49983C8.0625 2.32747 8.02855 2.1568 7.96259 1.99756C7.89663 1.83832 7.79995 1.69363 7.67808 1.57175C7.5562 1.44988 7.41151 1.3532 7.25227 1.28724C7.09303 1.22128 6.92236 1.18733 6.75 1.18733ZM2.0625 5.31233H6.9375V14.6873H2.0625V5.31233ZM2.25 2.31233H6.75C6.79973 2.31233 6.84742 2.33209 6.88258 2.36725C6.91775 2.40241 6.9375 2.4501 6.9375 2.49983V4.18733H2.0625V2.49983C2.0625 2.4501 2.08225 2.40241 2.11742 2.36725C2.15258 2.33209 2.20027 2.31233 2.25 2.31233ZM6.75 17.6873H2.25C2.20027 17.6873 2.15258 17.6676 2.11742 17.6324C2.08225 17.5973 2.0625 17.5496 2.0625 17.4998V15.8123H6.9375V17.4998C6.9375 17.5496 6.91775 17.5973 6.88258 17.6324C6.84742 17.6676 6.79973 17.6873 6.75 17.6873ZM18.5344 16.2811L15.4228 1.48358C15.3877 1.31418 15.3194 1.15339 15.222 1.01047C15.1245 0.867544 14.9997 0.7453 14.8548 0.650768C14.7099 0.556235 14.5478 0.491281 14.3777 0.459639C14.2076 0.427998 14.0329 0.430293 13.8638 0.466395L9.47531 1.40952C9.13568 1.48417 8.83919 1.68974 8.65016 1.98161C8.46114 2.27349 8.39483 2.62813 8.46563 2.96858L11.5772 17.7633C11.6126 17.9333 11.6814 18.0945 11.7795 18.2378C11.8777 18.381 12.0033 18.5033 12.1491 18.5976C12.36 18.7357 12.6066 18.8093 12.8588 18.8095C12.9533 18.81 13.0477 18.7999 13.14 18.7795L17.5284 17.8373C17.8668 17.7618 18.1619 17.5563 18.3501 17.2652C18.5383 16.974 18.6045 16.6206 18.5344 16.2811ZM10.7709 8.46983L15.5269 7.44796L16.8506 13.7442L12.0938 14.7633L10.7709 8.46983ZM10.1494 5.51108L14.9062 4.48639L15.2953 6.34358L10.5394 7.36546L10.1494 5.51108ZM9.7125 2.51108L14.1 1.56889C14.1131 1.56751 14.1263 1.56751 14.1394 1.56889C14.1744 1.56899 14.2087 1.57943 14.2378 1.59889C14.2593 1.61261 14.2779 1.63057 14.2922 1.65169C14.3066 1.67281 14.3164 1.69663 14.3212 1.72171L14.6728 3.39233L9.91781 4.40671L9.56719 2.73983C9.55623 2.69001 9.56534 2.63787 9.59254 2.59471C9.61973 2.55155 9.66283 2.52083 9.7125 2.50921V2.51108ZM17.2884 16.7423L12.9 17.6873C12.8765 17.6925 12.8522 17.693 12.8285 17.6886C12.8049 17.6843 12.7823 17.6752 12.7622 17.662C12.7407 17.6483 12.7221 17.6303 12.7078 17.6092C12.6934 17.5881 12.6836 17.5643 12.6788 17.5392L12.3272 15.8686L17.0822 14.8467L17.4375 16.5089C17.443 16.5339 17.4435 16.5597 17.439 16.5849C17.4345 16.6101 17.425 16.6342 17.4112 16.6557C17.3973 16.6772 17.3793 16.6958 17.3583 16.7103C17.3372 16.7249 17.3135 16.7351 17.2884 16.7405V16.7423Z" fill="white"/>
</svg>
