<svg width="48" height="48" viewBox="0 0 48 48" fill="none" xmlns="http://www.w3.org/2000/svg">
<path fill-rule="evenodd" clip-rule="evenodd" d="M17.0781 24.5C17.0781 24.2638 17.172 24.0373 17.339 23.8702C17.506 23.7032 17.7325 23.6094 17.9688 23.6094H31.0312C31.2675 23.6094 31.494 23.7032 31.661 23.8702C31.828 24.0373 31.9219 24.2638 31.9219 24.5C31.9219 24.7362 31.828 24.9627 31.661 25.1298C31.494 25.2968 31.2675 25.3906 31.0312 25.3906H17.9688C17.7325 25.3906 17.506 25.2968 17.339 25.1298C17.172 24.9627 17.0781 24.7362 17.0781 24.5Z" fill="#475467"/>
<path fill-rule="evenodd" clip-rule="evenodd" d="M14.5858 7.51756C20.8108 6.82748 27.0929 6.82748 33.3178 7.51756C36.9718 7.92556 39.9218 10.8036 40.3498 14.4776C41.0898 20.7916 41.0898 27.1696 40.3498 33.4836C39.9198 37.1576 36.9698 40.0336 33.3178 40.4436C27.0929 41.1337 20.8108 41.1337 14.5858 40.4436C10.9318 40.0336 7.98183 37.1576 7.55383 33.4836C6.81539 27.1698 6.81539 20.7914 7.55383 14.4776C7.98183 10.8036 10.9338 7.92556 14.5858 7.51756ZM32.9858 10.4976C26.9816 9.83203 20.9221 9.83203 14.9178 10.4976C13.8063 10.6209 12.7688 11.1153 11.973 11.901C11.1771 12.6867 10.6694 13.7177 10.5318 14.8276C9.82053 20.9095 9.82053 27.0536 10.5318 33.1356C10.6698 34.245 11.1777 35.2756 11.9736 36.0609C12.7694 36.8462 13.8066 37.3403 14.9178 37.4636C20.8718 38.1276 27.0318 38.1276 32.9858 37.4636C34.0967 37.3399 35.1335 36.8456 35.9289 36.0603C36.7243 35.2751 37.2319 34.2447 37.3698 33.1356C38.0812 27.0536 38.0812 20.9095 37.3698 14.8276C37.2315 13.7187 36.7237 12.6889 35.9283 11.904C35.133 11.1192 34.0964 10.6251 32.9858 10.5016" fill="#475467"/>
</svg>
