<svg width="8" height="6" viewBox="0 0 8 6" fill="none" xmlns="http://www.w3.org/2000/svg">
<path d="M0 2.76953C0 2.76953 1.5 0.0195312 4 0.0195312C6.5 0.0195312 8 2.76953 8 2.76953C8 2.76953 6.5 5.51953 4 5.51953C1.5 5.51953 0 2.76953 0 2.76953ZM4 4.51953C4.46413 4.51953 4.90925 4.33516 5.23744 4.00697C5.56563 3.67878 5.75 3.23366 5.75 2.76953C5.75 2.3054 5.56563 1.86028 5.23744 1.53209C4.90925 1.20391 4.46413 1.01953 4 1.01953C3.53587 1.01953 3.09075 1.20391 2.76256 1.53209C2.43437 1.86028 2.25 2.3054 2.25 2.76953C2.25 3.23366 2.43437 3.67878 2.76256 4.00697C3.09075 4.33516 3.53587 4.51953 4 4.51953Z" fill="#FCFCFD"/>
</svg>
