<svg width="20" height="24" viewBox="0 0 20 24" fill="none" xmlns="http://www.w3.org/2000/svg">
<path d="M8.54286 0.951516C8.43941 0.889931 8.32126 0.857422 8.20086 0.857422C8.08047 0.857422 7.96231 0.889931 7.85886 0.951516C7.77337 1.01925 7.71568 1.11599 7.69673 1.22341C7.67777 1.33082 7.69886 1.44146 7.75601 1.53437C9.85943 5.1738 10.3034 10.1332 7.43029 12.8675C6.32571 11.9392 5.44891 10.7697 4.86743 9.44923C3.80536 10.0391 2.9251 10.9085 2.32219 11.9632C1.71929 13.0179 1.41676 14.2176 1.44743 15.4321C1.49138 16.5027 1.74888 17.5537 2.20482 18.5234C2.66075 19.4931 3.30592 20.3619 4.10239 21.0786C4.89887 21.7954 5.83059 22.3458 6.84279 22.6973C7.855 23.0489 8.92727 23.1946 9.99658 23.1258C15.5011 23.1258 18.3571 19.7075 18.544 15.4321C18.7669 10.3029 15.1257 3.99437 8.54286 0.951516Z" stroke="white" stroke-linecap="round" stroke-linejoin="round"/>
</svg>
