<svg width="20" height="24" viewBox="0 0 20 24" fill="none" xmlns="http://www.w3.org/2000/svg">
<path fill-rule="evenodd" clip-rule="evenodd" d="M7.42028 0.215453C7.64859 0.0792458 7.90853 0.00506099 8.17434 0.000249903C8.44016 -0.00456118 8.70261 0.0601684 8.9357 0.188025C15.7706 3.36288 19.6397 9.95603 19.4014 15.4692C19.2986 17.7852 18.4706 19.9297 16.8643 21.4949C15.2563 23.0617 12.9471 23.9772 10.0243 23.9823C8.84299 24.0554 7.65901 23.8919 6.54176 23.5013C5.42451 23.1108 4.39649 22.5011 3.51798 21.708C2.63947 20.9149 1.92816 19.9544 1.42576 18.8828C0.923365 17.8112 0.639997 16.65 0.592276 15.4675V15.4537C0.557382 14.0829 0.898579 12.7286 1.57884 11.5379C2.25911 10.3472 3.25247 9.36557 4.45113 8.69945C4.55526 8.64165 4.67029 8.60617 4.78889 8.5953C4.90749 8.58442 5.02706 8.59838 5.13996 8.63628C5.25287 8.67419 5.35663 8.7352 5.44465 8.81544C5.53266 8.89568 5.60298 8.99338 5.65113 9.10231C6.06817 10.0486 6.65303 10.9117 7.37742 11.6497C8.22428 10.544 8.61513 9.11602 8.60313 7.54574C8.58942 5.67717 8.00313 3.67317 7.01913 1.96745C6.84822 1.67978 6.79454 1.33738 6.86923 1.01121C6.94391 0.685034 7.14122 0.400099 7.42028 0.215453Z" fill="#05834B"/>
</svg>
