<svg width="20" height="20" viewBox="0 0 20 20" fill="none" xmlns="http://www.w3.org/2000/svg">
<path fill-rule="evenodd" clip-rule="evenodd" d="M0 8C0 4.229 -1.19209e-07 2.343 1.172 1.172C2.343 -1.19209e-07 4.229 0 8 0H12C15.771 0 17.657 -1.19209e-07 18.828 1.172C20 2.343 20 4.229 20 8V12C20 15.771 20 17.657 18.828 18.828C17.657 20 15.771 20 12 20H8C4.229 20 2.343 20 1.172 18.828C-1.19209e-07 17.657 0 15.771 0 12V8ZM5.739 14.447C6.65223 13.7462 7.7242 13.2814 8.85996 13.0938C9.99572 12.9062 11.1602 13.0016 12.2503 13.3716C13.3404 13.7415 14.3224 14.3746 15.1094 15.2147C15.8963 16.0549 16.464 17.0761 16.762 18.188C16.796 18.3149 16.8047 18.4472 16.7876 18.5774C16.7705 18.7076 16.7279 18.8332 16.6622 18.9469C16.5966 19.0607 16.5091 19.1604 16.405 19.2404C16.3008 19.3203 16.1819 19.379 16.055 19.413C15.7988 19.4817 15.5258 19.4458 15.2961 19.3132C15.0663 19.1806 14.8987 18.9622 14.83 18.706C14.5454 17.6425 13.9177 16.7027 13.0444 16.0324C12.1711 15.3621 11.1009 14.9987 10 14.9987C8.89908 14.9987 7.82894 15.3621 6.95562 16.0324C6.0823 16.7027 5.45463 17.6425 5.17 18.706C5.13888 18.8359 5.08205 18.9583 5.00285 19.0659C4.92366 19.1735 4.82371 19.2641 4.70891 19.3324C4.5941 19.4007 4.46677 19.4454 4.33444 19.4637C4.2021 19.4819 4.06744 19.4735 3.93841 19.4389C3.80938 19.4043 3.68859 19.3442 3.58318 19.2621C3.47777 19.1801 3.38987 19.0777 3.32467 18.9611C3.25947 18.8445 3.2183 18.716 3.20359 18.5832C3.18888 18.4504 3.20092 18.316 3.239 18.188C3.63793 16.6999 4.51668 15.3849 5.739 14.447ZM8 7C8 6.46957 8.21071 5.96086 8.58579 5.58579C8.96086 5.21071 9.46957 5 10 5C10.5304 5 11.0391 5.21071 11.4142 5.58579C11.7893 5.96086 12 6.46957 12 7C12 7.53043 11.7893 8.03914 11.4142 8.41421C11.0391 8.78929 10.5304 9 10 9C9.46957 9 8.96086 8.78929 8.58579 8.41421C8.21071 8.03914 8 7.53043 8 7ZM10 3C8.93913 3 7.92172 3.42143 7.17157 4.17157C6.42143 4.92172 6 5.93913 6 7C6 8.06087 6.42143 9.07828 7.17157 9.82843C7.92172 10.5786 8.93913 11 10 11C11.0609 11 12.0783 10.5786 12.8284 9.82843C13.5786 9.07828 14 8.06087 14 7C14 5.93913 13.5786 4.92172 12.8284 4.17157C12.0783 3.42143 11.0609 3 10 3Z" fill="#05834B"/>
<path d="M16 0.5H4C2.067 0.5 0.5 2.067 0.5 4V16C0.5 17.933 2.067 19.5 4 19.5H16C17.933 19.5 19.5 17.933 19.5 16V4C19.5 2.067 17.933 0.5 16 0.5Z" stroke="#05834B"/>
</svg>
