<svg  viewBox="0 0 57 73" fill="none" xmlns="http://www.w3.org/2000/svg">
<path d="M54.5791 32.783C53.0072 29.2452 50.7222 26.0699 47.867 23.4557L45.5109 21.2939C45.4309 21.2225 45.3346 21.1719 45.2305 21.1464C45.1263 21.1209 45.0175 21.1214 44.9136 21.1477C44.8097 21.1741 44.7138 21.2256 44.6344 21.2977C44.5551 21.3698 44.4946 21.4602 44.4583 21.5611L43.4058 24.5811C42.75 26.4757 41.5436 28.4108 39.8352 30.3135C39.7218 30.435 39.5923 30.4673 39.5032 30.4754C39.4142 30.4835 39.2765 30.4673 39.1551 30.354C39.0417 30.2568 38.985 30.1111 38.9931 29.9654C39.2927 25.0912 37.8353 19.5936 34.6453 13.6103C32.0058 8.63896 28.338 4.76069 23.7554 2.05644L20.4115 0.0889664C19.9743 -0.170124 19.4156 0.169932 19.4399 0.680017L19.618 4.56638C19.7395 7.22206 19.4318 9.57006 18.7031 11.5213C17.8125 13.9098 16.5332 16.1283 14.8977 18.1201C13.7595 19.5043 12.4695 20.7563 11.0518 21.8526C7.63755 24.4772 4.8613 27.8403 2.93096 31.6899C1.00538 35.5732 0.00234931 39.8485 0 44.183C0 48.0045 0.752982 51.7047 2.24275 55.1943C3.68124 58.5541 5.75714 61.6034 8.35567 64.1734C10.979 66.7643 14.0233 68.8047 17.4157 70.2216C20.9297 71.6951 24.6541 72.44 28.5 72.44C32.3458 72.44 36.0703 71.6951 39.5842 70.2297C42.9683 68.8211 46.0456 66.7668 48.6443 64.1815C51.2676 61.5906 53.3241 58.5625 54.7572 55.2024C56.2447 51.7223 57.0078 47.9757 56.9999 44.191C56.9999 40.2399 56.1903 36.4021 54.5791 32.783Z" fill="currentColor"/>
</svg>
