<svg  viewBox="0 0 23 23" fill="none" xmlns="http://www.w3.org/2000/svg">
<path fill-rule="evenodd" clip-rule="evenodd" d="M5.44412 4.76035C5.46961 4.54602 5.54475 4.34058 5.66357 4.16039C5.78239 3.98019 5.94161 3.83019 6.12857 3.72232C6.31553 3.61446 6.52507 3.55169 6.74054 3.53902C6.95602 3.52634 7.17147 3.56411 7.36979 3.64931C8.37227 4.07787 10.6189 5.0964 13.4696 6.74171C16.3213 8.38797 18.3272 9.82562 19.1985 10.4779C19.9423 11.0358 19.9442 12.1421 19.1994 12.7019C18.3367 13.3504 16.3553 14.7691 13.4696 16.4361C10.5811 18.1032 8.36094 19.1094 7.3679 19.5323C6.51268 19.8976 5.55551 19.3435 5.44412 18.4213C5.31385 17.3433 5.07031 14.8956 5.07031 11.5899C5.07031 8.28603 5.31291 5.83929 5.44412 4.76035Z" fill="currentColor"/>
</svg>
