<svg width="24" height="24" viewBox="0 0 24 24" fill="none" xmlns="http://www.w3.org/2000/svg">
<path d="M3.71647 3.04804C3.62653 3.00413 3.52545 2.98834 3.4264 3.00273C3.32736 3.01712 3.23495 3.06102 3.16122 3.1287C3.08749 3.19638 3.03587 3.28471 3.01308 3.38216C2.99029 3.47962 2.9974 3.58168 3.03347 3.67504L5.87647 11.302C6.04414 11.7523 6.04414 12.2478 5.87647 12.698L3.03447 20.325C2.99858 20.4183 2.99157 20.5202 3.01434 20.6174C3.03712 20.7147 3.08863 20.8029 3.16219 20.8705C3.23574 20.9381 3.32793 20.9821 3.42678 20.9966C3.52563 21.0112 3.62656 20.9956 3.71647 20.952L21.7165 12.452C21.8021 12.4115 21.8744 12.3476 21.9251 12.2675C21.9758 12.1875 22.0027 12.0948 22.0027 12C22.0027 11.9053 21.9758 11.8126 21.9251 11.7325C21.8744 11.6525 21.8021 11.5885 21.7165 11.548L3.71647 3.04804Z" stroke="currentColor" stroke-width="2" stroke-linecap="round" stroke-linejoin="round"/>
<path d="M6 12H22" stroke="currentColor" stroke-width="2" stroke-linecap="round" stroke-linejoin="round"/>
</svg>
