<svg width="100%" height="100%" viewBox="0 0 50 50" fill="none" xmlns="http://www.w3.org/2000/svg">
<path d="M21.7059 5.56625C23.0379 3.14993 26.5106 3.14993 27.8425 5.56625C28.7714 7.25127 30.8853 7.87196 32.5777 6.9566C35.0045 5.64398 37.9259 7.52146 37.7401 10.2743C37.6105 12.194 39.0532 13.859 40.9718 14.0039C43.7231 14.2117 45.1657 17.3706 43.5211 19.586C42.3742 21.1309 42.6877 23.3116 44.2234 24.4708C46.4256 26.133 45.9314 29.5704 43.3501 30.5449C41.55 31.2245 40.6348 33.2285 41.3 35.0339C42.2539 37.6229 39.9798 40.2474 37.2814 39.6717C35.3997 39.2702 33.5463 40.4613 33.1298 42.3397C32.5325 45.0334 29.2005 46.0118 27.2418 44.0686C25.8758 42.7135 23.6727 42.7135 22.3067 44.0686C20.348 46.0118 17.016 45.0334 16.4187 42.3397C16.0022 40.4613 14.1488 39.2702 12.2671 39.6717C9.56875 40.2474 7.29462 37.6229 8.2485 35.0339C8.9137 33.2285 7.99848 31.2245 6.19843 30.5449C3.61714 29.5704 3.12293 26.133 5.3251 24.4708C6.86078 23.3116 7.17431 21.1309 6.02742 19.586C4.38277 17.3706 5.82538 14.2117 8.57666 14.0039C10.4953 13.859 11.938 12.194 11.8084 10.2743C11.6226 7.52145 14.544 5.64398 16.9708 6.9566C18.6632 7.87197 20.7771 7.25127 21.7059 5.56625Z" fill="#3EFFA2"/>
<path d="M15.709 22.96L23.5642 30.211L35.045 18.126" stroke="black" stroke-width="4.834"/>
</svg>
